<svg width="29" height="33" viewBox="0 0 29 33" fill="none" xmlns="http://www.w3.org/2000/svg">
<path d="M27.6278 31.893L27.4077 32.0042C26.8481 30.8972 25.8731 29.9546 24.7032 29.1618C23.5348 28.3701 22.1864 27.7376 20.9007 27.2456C18.4034 26.2899 16.1696 25.8739 16.0112 25.8448C10.3833 25.1803 6.44453 23.487 4.37975 20.7545L4.37965 20.7544C2.95028 18.8601 2.90952 17.0727 2.94995 16.4327C2.67261 16.093 2.42546 15.7296 2.21135 15.3467C1.20336 13.5455 1.03461 11.5683 1.11949 10.0321C1.20448 8.49404 1.54488 7.37627 1.57633 7.27615L1.57703 7.27401C1.58804 7.24008 1.60254 7.20752 1.62022 7.17684C1.16823 3.87794 2.998 1.08447 3.09204 0.94305L3.09198 0.943011L3.09536 0.938179C3.16438 0.839574 3.26597 0.768487 3.38225 0.737436C3.49854 0.706384 3.62205 0.71736 3.73103 0.76843C3.84001 0.8195 3.92748 0.907387 3.97803 1.01662C4.02858 1.12585 4.03896 1.24941 4.00735 1.36554L4.00739 1.36556L4.006 1.37029C4.00657 1.36834 4.00647 1.36882 4.00588 1.37164C3.99319 1.43187 3.75541 2.56101 4.98366 4.20978C6.27749 5.94659 9.20868 8.27371 15.7727 10.5117C22.2829 12.7302 25.4639 17.4298 27.0002 21.7962C28.5317 26.1489 28.4346 30.1821 28.3846 31.1378L28.3731 31.7784C28.3726 31.8925 28.3338 32.0031 28.2629 32.0925C28.1916 32.1826 28.0918 32.2459 27.9799 32.2722C27.868 32.2984 27.7505 32.2861 27.6465 32.2372C27.5425 32.1883 27.4581 32.1056 27.4069 32.0027L27.6278 31.893ZM27.6278 31.893C27.6542 31.9461 27.6978 31.9887 27.7515 32.014C27.8052 32.0392 27.8658 32.0456 27.9235 32.032C27.9813 32.0185 28.0328 31.9858 28.0696 31.9393C28.1064 31.8928 28.1265 31.8352 28.1265 31.7759L4.57655 20.6058C6.5812 23.2587 10.4387 24.9396 16.048 25.6008L16.0516 25.6015C16.2725 25.642 25.3053 27.2981 27.6278 31.893ZM7.96329 19.3997C6.4006 19.0055 5.08561 18.3788 4.03562 17.5214C4.15713 18.2275 4.46262 19.1751 5.20445 20.1524C7.03247 22.5607 10.7856 24.1999 16.1513 24.8334L16.1514 24.833L16.1647 24.8353C16.3525 24.868 18.4313 25.2412 20.855 26.1229C22.9529 26.8861 25.3456 28.0431 26.9812 29.7178C26.0814 26.5915 24.261 24.6694 21.8567 23.3452C19.1882 21.8755 15.8033 21.1425 12.1261 20.349C10.7666 20.0557 9.35704 19.7506 7.96338 19.3997L7.96329 19.3997ZM15.4474 11.4787L15.4474 11.4787C6.51616 8.43374 3.88397 5.14193 3.182 3.06634C2.652 4.45179 2.1963 6.55272 3.06686 8.63597C4.35332 11.7132 8.10623 13.9301 14.3536 15.1395C14.5719 15.1619 17.0321 15.4484 19.8339 16.8787C22.1432 18.0576 24.6899 20.017 26.3986 23.2464C25.0962 18.8059 22.1291 13.7564 15.4474 11.4787ZM8.21616 18.4082L8.21622 18.4082C9.55709 18.7466 10.9191 19.0413 12.2436 19.3279L12.3459 19.3501L12.346 19.3501L12.3629 19.3538C15.5675 20.0458 18.7307 20.729 21.3955 21.9852C23.4972 22.9759 25.2987 24.3273 26.5774 26.3255C25.5661 22.9643 23.5819 20.3414 20.6488 18.4844C17.5002 16.4923 14.3561 16.166 14.221 16.1519C14.219 16.1517 14.2177 16.1516 14.217 16.1515L14.2072 16.1504L14.1975 16.1486C7.83998 14.9207 3.76449 12.6273 2.22259 9.25558C2.04048 10.7406 2.03764 12.9445 3.10294 14.8479L3.10296 14.8479C4.07856 16.5916 5.78638 17.7956 8.21616 18.4082ZM2.12391 9.03004C2.09305 8.95633 2.06368 8.88266 2.03572 8.80911C1.80348 10.2988 1.68072 12.8119 2.8877 14.9684C3.90375 16.7844 5.67643 18.0223 8.15586 18.6474C9.50089 18.9868 10.8665 19.2823 12.1898 19.5687L2.12391 9.03004ZM2.28973 8.78227C2.27978 8.84401 2.27 8.9076 2.26049 8.97294L2.28973 8.78227Z" fill="white" stroke="white" stroke-width="0.493333"/>
</svg>
