<svg width="38" height="37" viewBox="0 0 38 37" fill="none" xmlns="http://www.w3.org/2000/svg">
<path d="M5.57703 9.27401L5.57633 9.27615C5.54488 9.37628 5.20448 10.494 5.11949 12.0321C5.03461 13.5683 5.20336 15.5455 6.21135 17.3467C6.42547 17.7296 6.67261 18.093 6.94995 18.4327C6.90952 19.0727 6.95028 20.8601 8.37965 22.7544L8.37975 22.7545C10.4445 25.487 14.3833 27.1803 20.0112 27.8448C20.1694 27.8739 22.4033 28.2898 24.9007 29.2456C26.1864 29.7376 27.5348 30.3701 28.7032 31.1618C29.8731 31.9546 30.8481 32.8972 31.4077 34.0042L31.6278 33.893M5.57703 9.27401L7.29744 3.07962C7.33315 3.0286 7.38573 2.99182 7.44589 2.97575C7.50606 2.95968 7.56997 2.96536 7.62636 2.99179C7.68275 3.01822 7.72802 3.06369 7.75417 3.12021L7.97803 3.01662C7.97803 3.01662 7.97803 3.01662 7.97803 3.01662C8.02858 3.12585 8.03896 3.24942 8.00735 3.36554L8.00739 3.36556L8.00601 3.37028C8.00657 3.36835 8.00647 3.36883 8.00588 3.37165C7.99319 3.4319 7.75542 4.56103 8.98366 6.20978C10.2775 7.94659 13.2087 10.2737 19.7727 12.5117C26.2829 14.7302 29.4639 19.4298 31.0002 23.7962C32.5317 28.1489 32.4346 32.1821 32.3846 33.1378L32.3731 33.7784C32.3726 33.8925 32.3338 34.0031 32.2629 34.0925L32.2629 34.0925C32.1916 34.1826 32.0918 34.2459 31.9799 34.2722C31.868 34.2984 31.7505 34.2861 31.6465 34.2372L31.7513 34.0144L31.6465 34.2372C31.5425 34.1883 31.4581 34.1056 31.4069 34.0027L31.6278 33.893M5.57703 9.27401C5.58804 9.24008 5.60254 9.20752 5.62022 9.17684L5.57703 9.27401ZM31.6278 33.893C29.3053 29.2981 20.2725 27.642 20.0516 27.6015L20.048 27.6008C14.4387 26.9396 10.5812 25.2587 8.57655 22.6058C7.11028 20.6626 7.1587 18.8429 7.2035 18.3522C6.90978 18.0022 6.64968 17.6252 6.42664 17.2263C4.4733 13.7359 5.75602 9.52716 5.81166 9.35011L7.76934 3.30076C7.75488 3.3499 6.51987 8.25384 19.6932 12.7452C32.5333 17.1208 32.2363 31.2625 32.138 33.1291L32.1265 33.7759C32.1265 33.8352 32.1064 33.8928 32.0696 33.9393C32.0328 33.9858 31.9813 34.0185 31.9235 34.032C31.8658 34.0456 31.8052 34.0392 31.7515 34.014C31.6978 33.9887 31.6542 33.9461 31.6278 33.893ZM8.03562 19.5214C7.9384 19.442 7.84346 19.3606 7.7508 19.2773C7.84148 20.0343 8.13362 21.1497 9.00797 22.3016C10.8977 24.7911 14.7357 26.4424 20.1224 27.0783C20.4708 27.1389 27.8177 28.459 31.117 32.2275C31.0744 32.0541 31.0291 31.8842 30.9812 31.7178M8.03562 19.5214C8.01315 19.3908 7.99698 19.2685 7.9855 19.1558C9.03399 20.0756 10.3838 20.7469 12.0236 21.1605C13.4126 21.5103 14.8181 21.8145 16.1782 22.1079C23.3323 23.6517 29.561 24.9974 31.3422 32.1105C31.2266 31.9766 31.1061 31.8457 30.9812 31.7178M8.03562 19.5214C9.08561 20.3788 10.4006 21.0055 11.9633 21.3997L11.9634 21.3997C13.357 21.7506 14.7666 22.0557 16.1261 22.349C19.8033 23.1425 23.1882 23.8755 25.8567 25.3452C28.261 26.6694 30.0814 28.5915 30.9812 31.7178M8.03562 19.5214C8.15713 20.2275 8.46262 21.1751 9.20445 22.1524C11.0325 24.5607 14.7856 26.1999 20.1513 26.8334L20.1514 26.833L20.1647 26.8353C20.3525 26.868 22.4313 27.2412 24.855 28.1229C26.9529 28.8861 29.3456 30.0431 30.9812 31.7178M19.4474 13.4787L19.4474 13.4787C26.1291 15.7564 29.0962 20.8059 30.3986 25.2464C28.6899 22.017 26.1432 20.0576 23.8339 18.8787C21.0321 17.4484 18.572 17.1619 18.3536 17.1395C12.1062 15.9301 8.35335 13.7132 7.06687 10.636L19.4474 13.4787ZM19.4474 13.4787C10.5162 10.4337 7.88397 7.14193 7.182 5.06634M19.4474 13.4787L7.182 5.06634M7.182 5.06634C6.652 6.45179 6.1963 8.55272 7.06686 10.636L7.182 5.06634ZM12.2162 20.4082L12.2162 20.4082C13.5571 20.7466 14.9191 21.0413 16.2436 21.3279L16.3459 21.3501L16.346 21.3501L16.3629 21.3537C19.5674 22.0458 22.7307 22.729 25.3955 23.9852C27.4972 24.9759 29.2987 26.3273 30.5774 28.3255C29.5661 24.9643 27.5819 22.3414 24.6488 20.4844C21.5002 18.4923 18.3561 18.166 18.221 18.1519C18.219 18.1517 18.2177 18.1516 18.217 18.1515L18.2072 18.1504L18.1975 18.1486C11.84 16.9207 7.76449 14.6273 6.22259 11.2556C6.04048 12.7406 6.03764 14.9445 7.10294 16.8479L7.10296 16.8479C8.07856 18.5916 9.78638 19.7956 12.2162 20.4082Z" fill="black" stroke="black" stroke-width="0.493333"/>
</svg>
