<svg width="38" height="37" viewBox="0 0 38 37" fill="none" xmlns="http://www.w3.org/2000/svg">
<path d="M32.4249 9.27377L32.4256 9.27591C32.4571 9.37603 32.7975 10.4938 32.8825 12.0319C32.9673 13.5681 32.7986 15.5453 31.7906 17.3465C31.5765 17.7294 31.3293 18.0928 31.052 18.4325C31.0924 19.0724 31.0517 20.8598 29.6223 22.7541L29.6222 22.7543C27.5574 25.4867 23.6186 27.18 17.9907 27.8446C17.8325 27.8737 15.5986 28.2896 13.1012 29.2453C11.8155 29.7374 10.4672 30.3699 9.29874 31.1616C8.12884 31.9543 7.15382 32.897 6.59426 34.004L6.37412 33.8927M32.4249 9.27377L5.87548 33.7757M32.4249 9.27377C32.4139 9.23983 32.3994 9.20728 32.3817 9.1766C32.8337 5.8777 31.0039 3.08423 30.9099 2.94281L30.91 2.94277L30.9066 2.93793C30.8376 2.83933 30.736 2.76824 30.6197 2.73719L30.5561 2.97527L30.6197 2.73719C30.5034 2.70614 30.3799 2.71712 30.2709 2.76819C30.1619 2.81926 30.0745 2.90714 30.0239 3.01637L30.0239 3.01638C29.9734 3.12561 29.963 3.24917 29.9946 3.3653L29.9946 3.36531L29.996 3.37011C29.9954 3.36809 29.9955 3.36853 29.9961 3.37139C30.0088 3.43161 30.2466 4.56076 29.0183 6.20954C27.7245 7.94634 24.7933 10.2735 18.2292 12.5114M32.4249 9.27377L18.3088 12.7449M6.37412 33.8927L6.59503 34.0025C6.5439 34.1054 6.45947 34.188 6.35545 34.237L6.25048 34.0137L6.35545 34.237C6.25143 34.2859 6.13393 34.2982 6.02202 34.2719C5.91012 34.2457 5.81039 34.1823 5.73901 34.0922L5.739 34.0922C5.66816 34.0028 5.62938 33.8922 5.62882 33.7782M6.37412 33.8927C8.69666 29.2978 17.7295 27.6417 17.9503 27.6012L17.954 27.6006M6.37412 33.8927L17.954 27.6006M5.62882 33.7782L5.62886 33.7801L5.87548 33.7757M5.62882 33.7782C5.62882 33.7773 5.62882 33.7765 5.62882 33.7756L5.87548 33.7757M5.62882 33.7782L5.61737 33.1375M5.87548 33.7757L5.86392 33.1289M5.61737 33.1375C5.61745 33.139 5.61752 33.1404 5.6176 33.1418L5.86392 33.1289M5.61737 33.1375L5.61729 33.1333L5.86392 33.1289M5.61737 33.1375C5.56739 32.1819 5.47026 28.1486 7.00176 23.7959C8.53806 19.4296 11.7191 14.73 18.2292 12.5114M5.86392 33.1289C5.76564 31.2623 5.46863 17.1206 18.3088 12.7449M18.3088 12.7449L18.2292 12.5114C18.2292 12.5114 18.2292 12.5114 18.2292 12.5114M18.3088 12.7449L18.2292 12.5114M17.954 27.6006C23.5632 26.9393 27.4208 25.2584 29.4254 22.6056C30.8917 20.6623 30.8433 18.8427 30.7985 18.352C31.0922 18.0019 31.3523 17.625 31.5753 17.2261L17.954 27.6006ZM26.0387 21.3994C27.6014 21.0053 28.9163 20.3785 29.9663 19.5211C29.8448 20.2272 29.5393 21.1749 28.7975 22.1522C26.9695 24.5604 23.2163 26.1996 17.8506 26.8331L17.8506 26.8327L17.8372 26.8351C17.6495 26.8677 15.5707 27.2409 13.147 28.1227C11.0491 28.8859 8.65631 30.0428 7.02077 31.7175C7.92052 28.5912 9.74099 26.6692 12.1453 25.3449C14.8137 23.8752 18.1986 23.1422 21.8758 22.3488C23.2353 22.0555 24.6449 21.7504 26.0386 21.3994L26.0387 21.3994ZM18.5546 13.4785L18.5546 13.4785C27.4858 10.4335 30.118 7.14169 30.82 5.0661C31.3499 6.45154 31.8057 8.55247 30.9351 10.6357C29.6486 13.713 25.8957 15.9298 19.6484 17.1393C19.43 17.1617 16.9699 17.4481 14.1681 18.8784C11.8587 20.0574 9.31207 22.0167 7.60335 25.2462C8.90575 20.8057 11.8729 15.7562 18.5546 13.4785ZM25.7858 20.408L25.7857 20.408C24.4449 20.7464 23.0828 21.0411 21.7584 21.3277L21.6561 21.3498L21.656 21.3499L21.6391 21.3535C18.4345 22.0456 15.2713 22.7288 12.6065 23.9849C10.5047 24.9757 8.70328 26.327 7.42455 28.3252C8.43585 24.964 10.42 22.3411 13.3532 20.4842C16.5017 18.492 19.6458 18.1657 19.781 18.1517C19.7829 18.1515 19.7843 18.1514 19.785 18.1513L19.7948 18.1502L19.8045 18.1483C26.162 16.9205 30.2375 14.627 31.7794 11.2553C31.9615 12.7404 31.9643 14.9443 30.899 16.8476L30.899 16.8477C29.9234 18.5914 28.2156 19.7954 25.7858 20.408Z" fill="black" stroke="black" stroke-width="0.493333"/>
</svg>
