<svg width="24" height="24" viewBox="0 0 24 24" fill="none" xmlns="http://www.w3.org/2000/svg">
<g clip-path="url(#clip0_24_18250)">
<path d="M4.6531 17.0462L4.28285 17.1976L4.28285 17.1976L4.6531 17.0462ZM4.30609 11.4453L3.92011 11.3403H3.92011L4.30609 11.4453ZM19.6939 11.4452L20.0799 11.3403L19.6939 11.4452ZM19.3469 17.0462L18.9766 16.8948L19.3469 17.0462ZM14.0365 20.8426L13.9749 20.4473H13.9749L14.0365 20.8426ZM9.96352 20.8426L9.90201 21.2378L9.96352 20.8426ZM8.08242 7.7854L8.00309 7.39335L8.08242 7.7854ZM15.9176 7.7854L15.8383 8.17745L15.9176 7.7854ZM9.21479 20.7261L9.2763 20.3308L9.21479 20.7261ZM4.74599 17.2734L5.11623 17.122L5.11623 17.122L4.74599 17.2734ZM14.7852 20.7261L14.8467 21.1213L14.7852 20.7261ZM19.254 17.2734L19.6242 17.4248L19.254 17.2734ZM19.6174 11.1638L19.2314 11.2688V11.2688L19.6174 11.1638ZM4.38262 11.1638L4.76861 11.2688H4.76861L4.38262 11.1638ZM15.1775 8.02577L14.8113 7.86485L15.1775 8.02577ZM14.5983 8.34961C14.5094 8.55186 14.6013 8.78786 14.8036 8.87673C15.0058 8.96561 15.2418 8.8737 15.3307 8.67145L14.5983 8.34961ZM8.82248 8.02577L9.18868 7.86485V7.86485L8.82248 8.02577ZM8.6693 8.67146C8.75817 8.8737 8.99418 8.96561 9.19642 8.87673C9.39867 8.78786 9.49058 8.55186 9.4017 8.34961L8.6693 8.67146ZM11.2429 3.0742L11.3102 3.4685V3.4685L11.2429 3.0742ZM11.3604 3.05415L11.2931 2.65986L11.2931 2.65986L11.3604 3.05415ZM12.6396 3.05415L12.5723 3.44845L12.5723 3.44845L12.6396 3.05415ZM12.7571 3.0742L12.8244 2.6799L12.8244 2.6799L12.7571 3.0742ZM15.4253 5.54836L15.816 5.46252L15.4253 5.54836ZM8.57466 5.54836L8.96534 5.6342L8.57466 5.54836ZM14.7237 20.3308L13.9749 20.4473L14.098 21.2378L14.8467 21.1213L14.7237 20.3308ZM10.025 20.4473L9.2763 20.3308L9.15328 21.1213L9.90201 21.2378L10.025 20.4473ZM19.2314 11.2688L19.3079 11.5502L20.0799 11.3403L20.0034 11.0588L19.2314 11.2688ZM18.9766 16.8948L18.8838 17.122L19.6242 17.4248L19.7171 17.1976L18.9766 16.8948ZM5.11623 17.122L5.02334 16.8948L4.28285 17.1976L4.37574 17.4248L5.11623 17.122ZM4.69208 11.5502L4.76861 11.2688L3.99664 11.0588L3.92011 11.3403L4.69208 11.5502ZM5.02334 16.8948C4.32647 15.1905 4.21075 13.3204 4.69208 11.5502L3.92011 11.3403C3.39247 13.2808 3.51965 15.3311 4.28285 17.1976L5.02334 16.8948ZM19.3079 11.5502C19.7892 13.3204 19.6735 15.1905 18.9766 16.8948L19.7171 17.1976C20.4803 15.3311 20.6075 13.2808 20.0799 11.3403L19.3079 11.5502ZM13.9749 20.4473C12.6669 20.6509 11.333 20.6509 10.025 20.4473L9.90201 21.2378C11.2915 21.4541 12.7084 21.4541 14.098 21.2378L13.9749 20.4473ZM8.16175 8.17745C10.6925 7.66535 13.3075 7.66535 15.8383 8.17745L15.9969 7.39335C13.3615 6.86005 10.6385 6.86005 8.00309 7.39335L8.16175 8.17745ZM9.2763 20.3308C7.38481 20.0365 5.80694 18.8113 5.11623 17.122L4.37574 17.4248C5.17748 19.3856 6.9978 20.7859 9.15328 21.1213L9.2763 20.3308ZM14.8467 21.1213C17.0022 20.7859 18.8225 19.3856 19.6242 17.4248L18.8838 17.122C18.193 18.8113 16.6152 20.0365 14.7237 20.3308L14.8467 21.1213ZM15.8383 8.17745C17.5012 8.51396 18.8094 9.7169 19.2314 11.2688L20.0034 11.0588C19.498 9.2001 17.941 7.78674 15.9969 7.39335L15.8383 8.17745ZM8.00309 7.39335C6.05902 7.78674 4.50205 9.2001 3.99664 11.0588L4.76861 11.2688C5.19057 9.71691 6.4988 8.51396 8.16175 8.17745L8.00309 7.39335ZM14.8113 7.86485L14.5983 8.34961L15.3307 8.67145L15.5437 8.1867L14.8113 7.86485ZM8.45628 8.1867L8.6693 8.67146L9.4017 8.34961L9.18868 7.86485L8.45628 8.1867ZM11.3102 3.4685L11.4277 3.44845L11.2931 2.65986L11.1756 2.6799L11.3102 3.4685ZM12.5723 3.44845L12.6898 3.4685L12.8244 2.6799L12.7069 2.65985L12.5723 3.44845ZM15.0347 5.6342C15.1989 6.38168 15.1213 7.15942 14.8113 7.86485L15.5437 8.1867C15.9215 7.32694 16.0168 6.37644 15.816 5.46252L15.0347 5.6342ZM8.18398 5.46252C7.98317 6.37644 8.07847 7.32694 8.45628 8.1867L9.18868 7.86485C8.87869 7.15942 8.80111 6.38168 8.96534 5.6342L8.18398 5.46252ZM11.4277 3.44845C11.8062 3.38385 12.1938 3.38385 12.5723 3.44845L12.7069 2.65986C12.2393 2.58005 11.7607 2.58005 11.2931 2.65986L11.4277 3.44845ZM15.816 5.46252C15.5007 4.02717 14.3099 2.93344 12.8244 2.6799L12.6898 3.4685C13.8723 3.67032 14.793 4.53452 15.0347 5.6342L15.816 5.46252ZM8.96534 5.6342C9.20696 4.53452 10.1277 3.67032 11.3102 3.4685L11.1756 2.6799C9.69014 2.93344 8.49935 4.02718 8.18398 5.46252L8.96534 5.6342Z" fill="white"/>
</g>
<defs>
<clipPath id="clip0_24_18250">
<rect width="24" height="24" fill="white"/>
</clipPath>
</defs>
</svg>
