<svg width="24" height="24" viewBox="0 0 24 24" fill="none" xmlns="http://www.w3.org/2000/svg">
<path fill-rule="evenodd" clip-rule="evenodd" d="M12 7.5C12.4142 7.5 12.75 7.77982 12.75 8.125V18.125C12.75 18.4702 12.4142 18.75 12 18.75C11.5858 18.75 11.25 18.4702 11.25 18.125V8.125C11.25 7.77982 11.5858 7.5 12 7.5Z" fill="white"/>
<path fill-rule="evenodd" clip-rule="evenodd" d="M4.06154 5.0434C3.90353 5.00327 3.75 5.12268 3.75 5.28571V16.1587C3.75 16.7306 4.13806 17.2295 4.69231 17.3703L11.2 19.023C11.725 19.1563 12.275 19.1563 12.8 19.023L19.3077 17.3703C19.8619 17.2295 20.25 16.7306 20.25 16.1587V5.28571C20.25 5.12268 20.0965 5.00327 19.9385 5.0434L13.1692 6.76257C12.4019 6.95745 11.5981 6.95745 10.8308 6.76257L4.06154 5.0434ZM2.25 5.28571C2.25 4.14452 3.32469 3.30865 4.43077 3.58956L11.2 5.30873C11.725 5.44206 12.275 5.44206 12.8 5.30873L19.5692 3.58956C20.6753 3.30865 21.75 4.14452 21.75 5.28571V16.1587C21.75 17.4168 20.8963 18.5144 19.6769 18.8241L13.1692 20.4769C12.4019 20.6717 11.5981 20.6717 10.8308 20.4769L4.32308 18.8241C3.10373 18.5144 2.25 17.4168 2.25 16.1587V5.28571Z" fill="white"/>
</svg>
