<svg width="24" height="24" viewBox="0 0 24 24" fill="none" xmlns="http://www.w3.org/2000/svg">
<path d="M12 21C16.9706 21 21 16.9706 21 12C21 7.02944 16.9706 3 12 3C7.02944 3 3 7.02944 3 12C3 16.9706 7.02944 21 12 21Z" stroke="white" stroke-width="1.2" stroke-linecap="round" stroke-linejoin="round"/>
<path d="M3.5 9.99997C7.5 11.5 4.63639 14.6173 7.5 15C11.99 15.6 9.5 20.5 9.5 20.5" stroke="white" stroke-width="1.2" stroke-linecap="round" stroke-linejoin="round"/>
<path d="M18 5.49991C16 5.49994 14 4.99991 13.2419 6.6945C12.742 7.6945 11.5 10.4999 13.5001 11.4999C14.7401 12.1199 15.38 12.2799 16.5 12.9999C18 13.9642 17.5001 17.4999 18.742 17.6946" stroke="white" stroke-width="1.2" stroke-linecap="round" stroke-linejoin="round"/>
</svg>
