<svg width="24" height="24" viewBox="0 0 24 24" fill="none" xmlns="http://www.w3.org/2000/svg">
<path d="M20.4378 8.44927C20.3262 8.25861 20.0812 8.19453 19.8905 8.30613C19.6999 8.41773 19.6358 8.66275 19.7474 8.8534L20.4378 8.44927ZM20.0926 15.3487L19.7474 15.1466L20.0926 15.3487ZM9.05073 19.1085C8.84184 19.0366 8.61422 19.1477 8.54232 19.3565C8.47042 19.5654 8.58147 19.793 8.79036 19.8649L9.05073 19.1085ZM3.9074 15.3487L4.25261 15.1466L3.9074 15.3487ZM3.9074 8.65133L4.25261 8.8534L3.9074 8.65133ZM14.1578 9.71503C14.3176 9.8675 14.5708 9.86149 14.7233 9.70163C14.8757 9.54176 14.8697 9.28856 14.7099 9.1361L14.1578 9.71503ZM9.00924 14.6883C9.15279 14.8562 9.40528 14.876 9.5732 14.7324C9.74113 14.5889 9.76089 14.3364 9.61735 14.1685L9.00924 14.6883ZM15.9567 12.0607C15.9567 11.8398 15.7776 11.6607 15.5567 11.6607C15.3358 11.6607 15.1567 11.8398 15.1567 12.0607H15.9567ZM11.9994 15.2733C11.7785 15.2733 11.5994 15.4524 11.5994 15.6733C11.5994 15.8942 11.7785 16.0733 11.9994 16.0733V15.2733ZM20.1601 4.28061C20.315 4.12317 20.313 3.86991 20.1556 3.71494C19.9982 3.55996 19.7449 3.56196 19.5899 3.71939L20.1601 4.28061ZM4.40244 19.148C4.24746 19.3054 4.24946 19.5587 4.40689 19.7136C4.56433 19.8686 4.81759 19.8666 4.97256 19.7092L4.40244 19.148ZM19.7474 8.8534C20.8842 10.7955 20.8842 13.2045 19.7474 15.1466L20.4378 15.5507C21.7207 13.359 21.7207 10.641 20.4378 8.44927L19.7474 8.8534ZM19.7474 15.1466C17.433 19.1004 12.8716 20.4237 9.05073 19.1085L8.79036 19.8649C12.9431 21.2943 17.916 19.8589 20.4378 15.5507L19.7474 15.1466ZM4.25261 15.1466C3.1158 13.2045 3.1158 10.7955 4.25261 8.8534L3.56219 8.44927C2.27927 10.641 2.27927 13.359 3.56219 15.5507L4.25261 15.1466ZM6.22659 17.5061C5.47105 16.8674 4.79979 16.0814 4.25261 15.1466L3.56219 15.5507C4.15517 16.5638 4.88523 17.4197 5.71011 18.1171L6.22659 17.5061ZM4.25261 8.8534C7.07714 4.02804 13.252 3.12166 17.3316 6.14404L17.8078 5.50122C13.367 2.21124 6.64033 3.19066 3.56219 8.44927L4.25261 8.8534ZM8.84331 12.0607C8.84331 10.279 10.2621 8.84699 11.9994 8.84699V8.04699C9.80828 8.04699 8.04331 9.84926 8.04331 12.0607H8.84331ZM11.9994 8.84699C12.8334 8.84699 13.5922 9.17564 14.1578 9.71503L14.7099 9.1361C14.0027 8.46163 13.0487 8.04699 11.9994 8.04699V8.84699ZM9.61735 14.1685C9.13543 13.6047 8.84331 12.8683 8.84331 12.0607H8.04331C8.04331 13.0646 8.40723 13.984 9.00924 14.6883L9.61735 14.1685ZM15.1567 12.0607C15.1567 13.841 13.737 15.2733 11.9994 15.2733V16.0733C14.1904 16.0733 15.9567 14.2712 15.9567 12.0607H15.1567ZM19.5899 3.71939L4.40244 19.148L4.97256 19.7092L20.1601 4.28061L19.5899 3.71939Z" fill="white"/>
</svg>
