<svg width="24" height="24" viewBox="0 0 24 24" fill="none" xmlns="http://www.w3.org/2000/svg">
<path d="M21.6058 8.91125C21.6071 8.00337 21.4758 7.3369 21.248 6.79383C21.0207 6.25208 20.6809 5.79376 20.2087 5.32156C19.2627 4.37558 18.0231 3.90434 16.7824 3.90751C15.0835 3.91185 13.4698 4.8803 11.9444 6.28068C10.7593 7.36866 9.70356 8.64221 8.74911 9.79357L8.7471 9.796C8.62866 9.93888 8.51179 10.0799 8.39635 10.2185C8.36328 10.2582 8.36591 10.3166 8.40243 10.3531C8.73391 10.6851 9.06531 11.0179 9.39568 11.3518C9.9752 11.9377 10.908 11.9466 11.4793 11.3828C11.8498 11.0172 12.2283 10.641 12.6051 10.264C14.23 8.6383 16.8777 8.57818 18.5244 10.2192C19.0838 10.7767 19.6435 11.3378 20.1814 11.877L20.1815 11.877L20.5147 12.211C20.5371 12.2334 20.5688 12.2439 20.6001 12.2393C20.6314 12.2347 20.6587 12.2155 20.6737 12.1876C21.2574 11.098 21.6058 9.99455 21.6058 8.9122V8.91125ZM21.6058 8.91125L21.5058 8.91111H21.6058V8.91125ZM11.9216 4.45367C11.9378 4.47485 11.9617 4.4887 11.9881 4.49216C12.0146 4.49561 12.0413 4.48838 12.0623 4.47206C13.445 3.4013 15.0253 2.60738 16.779 2.6029C18.3527 2.59888 19.9298 3.19772 21.1312 4.39906C21.6841 4.95198 22.1398 5.54731 22.451 6.28907C22.7617 7.02952 22.9119 7.87643 22.9104 8.91315V8.91328C22.9099 11.8422 20.8898 14.6532 18.6699 16.9173C16.5779 19.051 14.1748 20.8298 12.7081 21.9153C12.5989 21.9962 12.4948 22.0732 12.3965 22.1462C12.1656 22.3177 11.8496 22.3177 11.6187 22.1462C11.5208 22.0735 11.4171 21.9968 11.3083 21.9163L11.3071 21.9153C9.84039 20.8298 7.43736 19.051 5.34531 16.9173C3.13326 14.6612 1.11951 11.862 1.10487 8.94423C1.10511 8.94109 1.10521 8.93792 1.10516 8.93472L1.10477 8.9106C1.10472 8.90741 1.10452 8.90425 1.10418 8.90114C1.06055 7.27808 1.65853 5.63865 2.89813 4.39906C5.29134 2.00585 9.46706 1.99087 11.8637 4.38747C11.8847 4.40855 11.904 4.43068 11.9216 4.45367ZM10.9286 5.44347C10.9484 5.42491 10.9598 5.3991 10.9602 5.37195C10.9606 5.34481 10.9499 5.31866 10.9307 5.29953C9.04508 3.42633 5.70431 3.43788 3.82063 5.32156C2.83829 6.30391 2.36775 7.60308 2.40907 8.89129C2.40929 8.89826 2.4094 8.90523 2.4094 8.9122C2.4094 11.2864 4.08598 13.7694 6.27687 16.004C8.23001 17.996 10.4725 19.6735 11.9481 20.7666C11.9834 20.7928 12.0318 20.7928 12.0671 20.7666C12.6807 20.3121 13.4268 19.7565 14.2292 19.1197C14.252 19.1015 14.2658 19.0743 14.2669 19.0451C14.268 19.0159 14.2563 18.9877 14.2348 18.9679L12.0955 16.9931C11.8308 16.7488 11.8143 16.3361 12.0586 16.0714C12.303 15.8067 12.7157 15.7901 12.9804 16.0345L15.2748 18.1524C15.3119 18.1867 15.3687 18.1879 15.4073 18.1553C16.0241 17.6332 16.6522 17.0719 17.2613 16.4791C17.281 16.4599 17.2919 16.4335 17.2915 16.4061C17.2912 16.3787 17.2795 16.3526 17.2594 16.3339L15.1008 14.3414C14.8361 14.0971 14.8196 13.6844 15.0639 13.4196C15.3083 13.1549 15.721 13.1384 15.9857 13.3828L18.1736 15.4023C18.1931 15.4204 18.219 15.4299 18.2455 15.4288C18.2721 15.4277 18.2971 15.4161 18.3151 15.3965C18.8806 14.7803 19.4 14.1492 19.8508 13.51C19.8789 13.4702 19.8743 13.4161 19.8399 13.3817L19.2549 12.7954C18.7185 12.2578 18.1621 11.7 17.6035 11.1433C16.4853 10.029 14.6628 10.0508 13.5278 11.1863C13.149 11.5653 12.7683 11.9436 12.3957 12.3114C11.2971 13.3956 9.53916 13.352 8.46819 12.2693C7.97856 11.7743 7.48618 11.2816 6.99229 10.7877C6.75193 10.5473 6.73644 10.1627 6.9567 9.90378C7.19155 9.62772 7.44085 9.32682 7.70296 9.01044L7.70331 9.01001C8.63198 7.88908 9.72328 6.57204 10.9286 5.44347Z" fill="white" stroke="#24252E" stroke-width="0.2" stroke-linecap="round" stroke-linejoin="round"/>
</svg>
