<svg width="24" height="24" viewBox="0 0 24 24" fill="none" xmlns="http://www.w3.org/2000/svg">
<path d="M4.6531 17.0263L4.28259 17.177H4.28259L4.6531 17.0263ZM4.30609 11.3971L4.69221 11.5016L4.30609 11.3971ZM19.6939 11.3971L19.3078 11.5016L19.6939 11.3971ZM19.3469 17.0263L19.7174 17.177L19.7174 17.177L19.3469 17.0263ZM14.0365 20.8418L13.9746 20.4466L14.0365 20.8418ZM9.96352 20.8418L10.0253 20.4466L9.96352 20.8418ZM8.65619 7.60213L8.57648 7.21016L8.65619 7.60213ZM15.3438 7.60213L15.4235 7.21016H15.4235L15.3438 7.60213ZM9.21479 20.7247L9.15298 21.1199L9.21479 20.7247ZM4.74598 17.2546L5.1165 17.1039H5.1165L4.74598 17.2546ZM14.7852 20.7247L14.847 21.1199L14.7852 20.7247ZM19.254 17.2546L18.8835 17.1039L18.8835 17.1039L19.254 17.2546ZM15.6199 7.65829L15.5402 8.05026H15.5402L15.6199 7.65829ZM8.38009 7.65829L8.45981 8.05026L8.38009 7.65829ZM7.24397 7.43059C7.24397 7.65151 7.42306 7.8306 7.64397 7.8306C7.86489 7.8306 8.04397 7.65151 8.04397 7.43059H7.24397ZM7.64397 7.12771H7.24397H7.64397ZM16.356 7.12772H15.956H16.356ZM15.956 7.4306C15.956 7.65151 16.1351 7.8306 16.356 7.8306C16.5769 7.8306 16.756 7.65151 16.756 7.4306H15.956ZM10.8517 3.14126L10.7546 2.75322L10.7546 2.75322L10.8517 3.14126ZM13.1482 3.14126L13.2453 2.75322L13.1482 3.14126ZM8.45981 8.05026L8.73591 7.99411L8.57648 7.21016L8.30037 7.26631L8.45981 8.05026ZM15.2641 7.99411L15.5402 8.05026L15.6996 7.26631L15.4235 7.21016L15.2641 7.99411ZM14.7234 20.3295L13.9746 20.4466L14.0983 21.237L14.847 21.1199L14.7234 20.3295ZM10.0253 20.4466L9.2766 20.3295L9.15298 21.1199L9.90171 21.237L10.0253 20.4466ZM18.9764 16.8756L18.8835 17.1039L19.6245 17.4054L19.7174 17.177L18.9764 16.8756ZM5.1165 17.1039L5.02361 16.8756L4.28259 17.177L4.37547 17.4054L5.1165 17.1039ZM5.02361 16.8756C4.32645 15.1619 4.21066 13.2815 4.69221 11.5016L3.91997 11.2927C3.39257 13.2421 3.51967 15.3018 4.28259 17.177L5.02361 16.8756ZM19.3078 11.5016C19.7893 13.2815 19.6736 15.1619 18.9764 16.8756L19.7174 17.177C20.4803 15.3018 20.6074 13.2421 20.08 11.2927L19.3078 11.5016ZM13.9746 20.4466C12.6668 20.6511 11.3331 20.6511 10.0253 20.4466L9.90171 21.237C11.2914 21.4543 12.7085 21.4543 14.0983 21.237L13.9746 20.4466ZM8.73591 7.99411C10.8881 7.55641 13.1119 7.55641 15.2641 7.99411L15.4235 7.21016C13.1662 6.75107 10.8339 6.75107 8.57648 7.21016L8.73591 7.99411ZM9.2766 20.3295C7.38596 20.0338 5.80765 18.8028 5.1165 17.1039L4.37547 17.4054C5.17677 19.3749 6.99665 20.7826 9.15298 21.1199L9.2766 20.3295ZM14.847 21.1199C17.0033 20.7826 18.8232 19.375 19.6245 17.4054L18.8835 17.1039C18.1923 18.8028 16.614 20.0338 14.7234 20.3295L14.847 21.1199ZM15.5402 8.05026C17.3847 8.42538 18.8385 9.76708 19.3078 11.5016L20.08 11.2927C19.5281 9.2527 17.827 7.69896 15.6996 7.26631L15.5402 8.05026ZM8.30037 7.26631C6.17302 7.69896 4.47188 9.2527 3.91997 11.2927L4.69221 11.5016C5.16147 9.76708 6.61532 8.42538 8.45981 8.05026L8.30037 7.26631ZM8.04397 7.43059V7.12771H7.24397V7.43059H8.04397ZM15.956 7.12772V7.4306H16.756V7.12772H15.956ZM10.9488 3.5293C11.638 3.3569 12.3619 3.3569 13.0512 3.52931L13.2453 2.75322C12.4286 2.54893 11.5713 2.54893 10.7546 2.75322L10.9488 3.5293ZM16.756 7.12772C16.756 5.05905 15.3028 3.26789 13.2453 2.75322L13.0512 3.52931C14.7721 3.95979 15.956 5.44586 15.956 7.12772H16.756ZM8.04397 7.12771C8.04397 5.44585 9.22784 3.95979 10.9488 3.5293L10.7546 2.75322C8.69715 3.26789 7.24397 5.05905 7.24397 7.12771H8.04397Z" fill="white"/>
<path d="M12 13.5L12 15.5" stroke="white" stroke-width="0.8" stroke-linecap="round"/>
</svg>
