<svg width="24" height="24" viewBox="0 0 24 24" fill="none" xmlns="http://www.w3.org/2000/svg">
<path fill-rule="evenodd" clip-rule="evenodd" d="M4.85548 18.6797C5.7199 19.0355 6.69852 19.2872 7.79056 19.4166C6.91792 18.9748 6.14442 18.4007 5.47995 17.7271C3.92339 16.1492 2.96512 14.025 2.73223 11.7737C2.14148 11.6999 0.88613 11.5522 0 11.7368C0.144164 14.8219 1.77438 17.4117 4.85548 18.6797ZM1.23889 12.7659C1.47724 14.0392 2.03178 15.1532 2.87953 16.0422C2.34163 15.029 1.962 13.9299 1.75238 12.7936C1.58403 12.7807 1.41065 12.7707 1.23889 12.7659Z" fill="white"/>
<path fill-rule="evenodd" clip-rule="evenodd" d="M3.43397 10.6662C3.40641 13.8089 4.88144 16.5194 7.04452 18.0907C7.77849 18.6238 8.59168 19.0258 9.45227 19.269C8.84329 18.7567 8.31276 18.1001 7.89778 17.3251C6.72771 15.14 6.47633 12.0134 7.97539 8.52469L7.97131 8.52002C7.70469 8.21523 6.52265 6.86396 4.06165 7.01088C3.87704 7.49087 3.43397 8.74622 3.43397 10.6662ZM4.8663 8.13667C4.70984 8.71434 4.54984 9.56515 4.54984 10.6662V10.676L4.5498 10.676C4.53338 12.5479 5.11571 14.2251 6.06237 15.5359C5.62442 13.5608 5.7559 11.2492 6.66011 8.80915C6.29296 8.53041 5.71164 8.21911 4.8663 8.13667Z" fill="white"/>
<path fill-rule="evenodd" clip-rule="evenodd" d="M7.97398 10.9614C6.57094 16.6843 10.8539 21.2995 13.6969 18.8258C18.0537 15.0228 15.6169 7.19531 11.8139 4.5C11.1493 5.09075 8.86011 7.23223 7.97398 10.9614ZM11.8826 6.39918C13.0642 7.62516 14.0535 9.50027 14.4463 11.5145C14.9295 13.9926 14.4529 16.3137 12.7806 17.7741C12.3989 18.106 12.0495 18.16 11.7103 18.0841C11.3184 17.9965 10.8153 17.6984 10.3314 17.0948C9.3688 15.8942 8.72382 13.7607 9.3287 11.2935L9.32873 11.2935L9.33103 11.2838C9.87995 8.97379 11.0349 7.34829 11.8826 6.39918Z" fill="white"/>
<path fill-rule="evenodd" clip-rule="evenodd" d="M15.8935 17.1929C15.525 17.921 15.0319 18.5965 14.4004 19.1956C15.2811 18.9065 16.0718 18.4757 16.7659 17.9379C19.9709 15.4548 21.1173 10.6902 19.5695 7.04828C17.2803 6.93752 16.0988 8.0821 15.7296 8.48824C16.9403 11.342 17.2057 14.6008 15.8935 17.1929ZM17.6989 15.3019C19.0733 13.2486 19.5219 10.5305 18.7963 8.17952C17.99 8.26001 17.4222 8.53996 17.0509 8.80163C17.7975 10.8674 18.1044 13.1602 17.6989 15.3019Z" fill="white"/>
<path fill-rule="evenodd" clip-rule="evenodd" d="M22.3752 12.7562C22.2125 12.7603 22.0465 12.7693 21.8833 12.7819C21.6721 13.9518 21.2808 15.0609 20.7379 16.0706C21.7389 14.9769 22.1821 13.6921 22.3752 12.7562ZM18.7031 18.7434C19.733 18.3417 20.6144 17.7805 21.3412 17.0537C23.2981 15.0968 23.5935 12.5492 23.6304 11.7369C22.8181 11.5523 21.5997 11.6631 20.8982 11.7738C20.6656 14.1251 19.6375 16.2414 18.0921 17.7809C17.4292 18.4413 16.6711 18.9955 15.8398 19.4167C16.894 19.2996 17.8496 19.0763 18.7031 18.7434Z" fill="white"/>
</svg>
