<svg width="24" height="24" viewBox="0 0 24 24" fill="none" xmlns="http://www.w3.org/2000/svg">
<path d="M12.4498 15.6323L12.5065 16.0282H12.5065L12.4498 15.6323ZM11.559 15.6323L11.6158 15.2363L11.559 15.6323ZM11.5523 3.03274L11.4947 2.63691V2.63691L11.5523 3.03274ZM12.4564 3.03274L12.514 2.63691L12.514 2.63691L12.4564 3.03274ZM7.87983 11.9127L7.4841 11.971L7.87983 11.9127ZM7.88002 6.75693L8.27575 6.81525L7.88002 6.75693ZM16.1263 6.77402L16.5222 6.71628L16.1263 6.77402ZM16.1265 11.8956L15.7307 11.8379L16.1265 11.8956ZM12.5495 15.618L12.4927 15.222H12.4927L12.5495 15.618ZM12.5532 3.04682L12.4956 3.44265L12.4956 3.44265L12.5532 3.04682ZM11.4402 3.04907L11.4978 3.4449L11.4402 3.04907ZM11.4438 15.6158L11.3871 16.0117L11.4438 15.6158ZM19.4 11.4531C19.4 11.2322 19.2209 11.0531 19 11.0531C18.7791 11.0531 18.6 11.2322 18.6 11.4531H19.4ZM5.4 11.4531C5.4 11.2322 5.22091 11.0531 5 11.0531C4.77909 11.0531 4.6 11.2322 4.6 11.4531H5.4ZM11.6 21C11.6 21.2209 11.7791 21.4 12 21.4C12.2209 21.4 12.4 21.2209 12.4 21H11.6ZM11.4978 3.4449L11.61 3.42857L11.4947 2.63691L11.3826 2.65324L11.4978 3.4449ZM12.3988 3.42857L12.4956 3.44265L12.6108 2.651L12.514 2.63691L12.3988 3.42857ZM12.4927 15.222L12.393 15.2363L12.5065 16.0282L12.6063 16.0139L12.4927 15.222ZM11.6158 15.2363L11.5006 15.2198L11.3871 16.0117L11.5022 16.0282L11.6158 15.2363ZM12.393 15.2363C12.1351 15.2733 11.8737 15.2733 11.6158 15.2363L11.5022 16.0282C11.8355 16.076 12.1733 16.076 12.5065 16.0282L12.393 15.2363ZM11.61 3.42857C11.8717 3.39048 12.1371 3.39048 12.3988 3.42857L12.514 2.63691C12.1759 2.5877 11.8329 2.5877 11.4947 2.63691L11.61 3.42857ZM8.27555 11.8544C8.02957 10.1853 8.02975 8.48438 8.27575 6.81525L7.4843 6.69861C7.22691 8.44502 7.22671 10.2245 7.4841 11.971L8.27555 11.8544ZM15.7305 6.83176C15.9725 8.49016 15.9726 10.1795 15.7307 11.8379L16.5223 11.9533C16.7754 10.2184 16.7752 8.4512 16.5222 6.71628L15.7305 6.83176ZM15.7307 11.8379C15.4706 13.6208 14.1415 14.9856 12.4927 15.222L12.6063 16.0139C14.6334 15.7233 16.2152 14.0588 16.5223 11.9533L15.7307 11.8379ZM16.5222 6.71628C16.2152 4.61222 14.6362 2.94579 12.6108 2.65099L12.4956 3.44265C14.1431 3.68244 15.4705 5.04939 15.7305 6.83176L16.5222 6.71628ZM8.27575 6.81525C8.53706 5.04219 9.85856 3.68348 11.4978 3.4449L11.3826 2.65324C9.36594 2.94675 7.79296 4.60427 7.4843 6.69861L8.27575 6.81525ZM7.4841 11.971C7.79297 14.0668 9.36877 15.7223 11.3871 16.0117L11.5006 15.2198C9.86021 14.9846 8.53695 13.628 8.27555 11.8544L7.4841 11.971ZM18.6 11.4531C18.6 15.3557 15.6232 18.4785 12 18.4785V19.2785C16.1088 19.2785 19.4 15.7524 19.4 11.4531H18.6ZM12 18.4785C8.37682 18.4785 5.4 15.3557 5.4 11.4531H4.6C4.6 15.7524 7.89119 19.2785 12 19.2785V18.4785ZM11.6 18.8785V21H12.4V18.8785H11.6Z" fill="white"/>
</svg>
