<svg width="24" height="24" viewBox="0 0 24 24" fill="none" xmlns="http://www.w3.org/2000/svg">
<path d="M8.66667 6C8.22464 6 7.80072 6.17559 7.48816 6.48816C7.17559 6.80072 7 7.22464 7 7.66667V16C7 16.442 7.17559 16.866 7.48816 17.1785C7.80072 17.4911 8.22464 17.6667 8.66667 17.6667C9.10869 17.6667 9.53262 17.4911 9.84518 17.1785C10.1577 16.866 10.3333 16.442 10.3333 16V7.66667C10.3333 7.22464 10.1577 6.80072 9.84518 6.48816C9.53262 6.17559 9.10869 6 8.66667 6ZM15.3333 6C14.8913 6 14.4674 6.17559 14.1548 6.48816C13.8423 6.80072 13.6667 7.22464 13.6667 7.66667V16C13.6667 16.442 13.8423 16.866 14.1548 17.1785C14.4674 17.4911 14.8913 17.6667 15.3333 17.6667C15.7754 17.6667 16.1993 17.4911 16.5118 17.1785C16.8244 16.866 17 16.442 17 16V7.66667C17 7.22464 16.8244 6.80072 16.5118 6.48816C16.1993 6.17559 15.7754 6 15.3333 6Z" fill="white"/>
</svg>
