<svg width="24" height="24" viewBox="0 0 24 24" fill="none" xmlns="http://www.w3.org/2000/svg">
<path d="M17.2105 8.75504L14.6417 10.4675L12.4167 6.90504C12.323 6.76129 12.1667 6.66754 11.9917 6.66754C11.8167 6.66754 11.6605 6.75504 11.5667 6.90504L9.34173 10.4675L6.77298 8.75504C6.59798 8.63629 6.37298 8.64254 6.20423 8.76754C6.03548 8.89254 5.96048 9.10504 6.01673 9.31129L8.01673 16.355C8.07923 16.5675 8.27298 16.7175 8.49798 16.7175H15.498C15.723 16.7175 15.9167 16.5675 15.9792 16.355L17.9792 9.31129C18.0355 9.11129 17.9605 8.89254 17.7917 8.76754C17.6105 8.64254 17.3855 8.63629 17.2105 8.75504Z" fill="#FAD051"/>
</svg>
