<svg width="24" height="24" viewBox="0 0 24 24" fill="none" xmlns="http://www.w3.org/2000/svg">
<path d="M3.31573 13.7811L3.70516 13.6897L3.31573 13.7811ZM3.31573 8.324L3.70516 8.41535L3.31573 8.324ZM18.7893 8.324L19.1788 8.23266L18.7893 8.324ZM18.7893 13.781L19.1788 13.8724L18.7893 13.781ZM13.781 18.7893L13.6897 18.3999L13.781 18.7893ZM8.324 18.7893L8.23265 19.1788L8.324 18.7893ZM8.324 3.31573L8.23265 2.9263L8.324 3.31573ZM13.781 3.31573L13.8724 2.9263L13.781 3.31573ZM20.7172 21.2828C20.8734 21.4391 21.1266 21.4391 21.2828 21.2828C21.4391 21.1266 21.4391 20.8734 21.2828 20.7172L20.7172 21.2828ZM3.70516 13.6897C3.29828 11.9551 3.29828 10.1499 3.70516 8.41535L2.9263 8.23265C2.49123 10.0874 2.49123 12.0177 2.9263 13.8724L3.70516 13.6897ZM18.3999 8.41535C18.8068 10.1499 18.8068 11.9551 18.3999 13.6897L19.1788 13.8724C19.6138 12.0177 19.6138 10.0874 19.1788 8.23266L18.3999 8.41535ZM13.6897 18.3999C11.9551 18.8068 10.1499 18.8068 8.41535 18.3999L8.23265 19.1788C10.0874 19.6138 12.0177 19.6138 13.8724 19.1788L13.6897 18.3999ZM8.41535 3.70516C10.1499 3.29828 11.9551 3.29828 13.6897 3.70516L13.8724 2.9263C12.0177 2.49123 10.0874 2.49123 8.23265 2.9263L8.41535 3.70516ZM8.41535 18.3999C6.07822 17.8517 4.25337 16.0268 3.70516 13.6897L2.9263 13.8724C3.5439 16.5053 5.59972 18.5612 8.23265 19.1788L8.41535 18.3999ZM13.8724 19.1788C16.5053 18.5612 18.5611 16.5053 19.1788 13.8724L18.3999 13.6897C17.8517 16.0268 16.0268 17.8517 13.6897 18.3999L13.8724 19.1788ZM13.6897 3.70516C16.0268 4.25337 17.8517 6.07822 18.3999 8.41535L19.1788 8.23266C18.5611 5.59972 16.5053 3.5439 13.8724 2.9263L13.6897 3.70516ZM8.23265 2.9263C5.59972 3.5439 3.5439 5.59972 2.9263 8.23265L3.70516 8.41535C4.25337 6.07822 6.07822 4.25337 8.41535 3.70516L8.23265 2.9263ZM17.0523 17.618L20.7172 21.2828L21.2828 20.7172L17.618 17.0523L17.0523 17.618Z" fill="white"/>
</svg>
