<svg width="24" height="24" viewBox="0 0 24 24" fill="none" xmlns="http://www.w3.org/2000/svg">
<path d="M12 15C13.6569 15 15 13.6569 15 12C15 10.3431 13.6569 9 12 9C10.3431 9 9 10.3431 9 12C9 13.6569 10.3431 15 12 15Z" stroke="white" stroke-opacity="0.6" stroke-width="0.8" stroke-linecap="round" stroke-linejoin="round"/>
<path d="M4.00031 7.47568C3.11421 9 3.40489 15.5 4.00031 16.5243C5.00037 18.2448 10.0004 21 12.0003 21C14.0002 21 19.1425 18 20.0003 16.5243C20.8581 15.0486 20.8581 8.95135 20.0003 7.47568C19.1425 5.99998 14.0004 3 12.0003 3C10.0002 3 4.88641 5.95135 4.00031 7.47568Z" stroke="white" stroke-opacity="0.6" stroke-width="0.8" stroke-linecap="round" stroke-linejoin="round"/>
</svg>
