<svg width="24" height="24" viewBox="0 0 24 24" fill="none" xmlns="http://www.w3.org/2000/svg">
<path d="M21.4608 13.5458H21.4606C21.2352 13.546 21.019 13.6357 20.8596 13.7951C20.7002 13.9545 20.6105 14.1706 20.6103 14.3961V14.3963V18.1845C20.6103 18.6935 20.4081 19.1817 20.0481 19.5416C19.6882 19.9016 19.2001 20.1038 18.691 20.1038C18.182 20.1038 17.6938 19.9016 17.3339 19.5416C16.974 19.1817 16.7718 18.6935 16.7718 18.1845L16.7718 5.94751L16.7718 5.94671C16.7706 5.72189 16.6805 5.50667 16.5212 5.34804C16.3626 5.1901 16.1481 5.10102 15.9244 5.10002C15.8105 5.09582 15.6969 5.11429 15.5902 5.15437C15.4826 5.19479 15.3842 5.25636 15.3008 5.33545C15.2174 5.41454 15.1507 5.50954 15.1046 5.61485C15.0585 5.72016 15.034 5.83363 15.0325 5.94857L15.0325 5.94857V5.95051V15.8835C15.0228 16.3658 14.8245 16.8252 14.48 17.163C14.1353 17.5012 13.6716 17.6906 13.1887 17.6906C12.7057 17.6906 12.2421 17.5012 11.8973 17.163C11.5528 16.8252 11.3545 16.3658 11.3448 15.8835V11.796H11.3449L11.3447 11.7905C11.338 11.6093 11.2613 11.4378 11.1308 11.3119C11.0002 11.1861 10.826 11.1158 10.6447 11.1158C10.4633 11.1158 10.2891 11.1861 10.1586 11.3119C10.028 11.4378 9.95133 11.6093 9.94463 11.7905L9.94453 11.7905V11.796V17.9205C9.94453 18.3995 9.75426 18.8589 9.41557 19.1975C9.07688 19.5362 8.61751 19.7265 8.13853 19.7265C7.65955 19.7265 7.20019 19.5362 6.8615 19.1975C6.52281 18.8589 6.33253 18.3995 6.33253 17.9205V9.18751C6.33253 9.07572 6.31051 8.96503 6.26773 8.86175C6.22495 8.75847 6.16225 8.66463 6.08321 8.58558C6.00416 8.50654 5.91032 8.44384 5.80704 8.40106C5.70376 8.35828 5.59307 8.33626 5.48128 8.33626C5.36949 8.33626 5.2588 8.35828 5.15552 8.40106C5.05224 8.44383 4.9584 8.50654 4.87936 8.58558C4.80031 8.66463 4.73761 8.75847 4.69483 8.86175C4.65205 8.96503 4.63003 9.07572 4.63003 9.18751V11.6999C4.62948 12.2437 4.41315 12.765 4.02855 13.1495C3.64395 13.534 3.1225 13.7501 2.57868 13.7505H1.20703C1.0479 13.7505 0.895289 13.6873 0.782767 13.5748C0.670245 13.4623 0.607031 13.3096 0.607031 13.1505C0.607031 12.9914 0.670245 12.8388 0.782767 12.7262C0.895289 12.6137 1.0479 12.5505 1.20703 12.5505H2.57878C2.80439 12.5505 3.02077 12.4609 3.18038 12.3015C3.34 12.1421 3.42979 11.9258 3.43003 11.7002V11.7V9.18751C3.43003 8.91813 3.48309 8.6514 3.58617 8.40253C3.68926 8.15366 3.84035 7.92753 4.03083 7.73706C4.2213 7.54658 4.44743 7.39549 4.6963 7.2924C4.94517 7.18932 5.21191 7.13626 5.48128 7.13626C5.75065 7.13626 6.01739 7.18932 6.26626 7.2924C6.51513 7.39549 6.74126 7.54658 6.93173 7.73706C7.12221 7.92753 7.2733 8.15366 7.37639 8.40253C7.47947 8.6514 7.53253 8.91813 7.53253 9.18751V17.9205C7.53253 18.0812 7.59638 18.2354 7.71002 18.349C7.82367 18.4627 7.97781 18.5265 8.13853 18.5265C8.29925 18.5265 8.45339 18.4627 8.56704 18.349C8.68069 18.2354 8.74453 18.0812 8.74453 17.9205V11.7975C8.7544 11.3003 8.95873 10.8268 9.31371 10.4786C9.66902 10.13 10.1469 9.93472 10.6447 9.93472C11.1424 9.93472 11.6203 10.13 11.9756 10.4786C12.3306 10.8268 12.5349 11.3003 12.5448 11.7975V15.885H12.5447L12.5449 15.8909C12.5514 16.0572 12.622 16.2147 12.7421 16.3301C12.8621 16.4455 13.0221 16.51 13.1887 16.51C13.3552 16.51 13.5152 16.4455 13.6352 16.3301C13.7553 16.2147 13.8259 16.0572 13.8324 15.8909L13.8325 15.8909V15.885V5.94894C13.8428 5.40711 14.0652 4.8909 14.452 4.51121C14.839 4.13121 15.3597 3.91831 15.9022 3.91831C16.4446 3.91831 16.9653 4.13121 17.3524 4.51121C17.7391 4.8909 17.9615 5.40711 17.9718 5.94894V18.1845C17.9718 18.3753 18.0476 18.5582 18.1824 18.6931C18.3173 18.828 18.5003 18.9038 18.691 18.9038C18.8818 18.9038 19.0647 18.828 19.1996 18.6931C19.3345 18.5582 19.4103 18.3753 19.4103 18.1845V14.4002C19.4108 13.8565 19.6271 13.3352 20.0115 12.9507C20.396 12.5663 20.9172 12.3501 21.4609 12.3495H22.792C22.9506 12.3495 23.1028 12.4123 23.2152 12.5242C23.3276 12.636 23.3911 12.7877 23.392 12.9461C23.3919 13.1051 23.3287 13.2576 23.2163 13.37C23.1038 13.4825 22.9512 13.5458 22.792 13.5458H21.4608Z" fill="white" stroke="#161C33" stroke-width="0.3"/>
</svg>
