<svg width="24" height="24" viewBox="0 0 24 24" fill="none" xmlns="http://www.w3.org/2000/svg">
<path fill-rule="evenodd" clip-rule="evenodd" d="M2.32617 17.2429C2.32617 16.2508 3.09286 15.4841 4.08497 15.4841C4.29615 15.4841 4.51888 15.5105 4.74338 15.5969C4.97087 15.6844 5.16459 15.8197 5.3364 15.9915L4.8591 16.4688L5.3364 15.9915L7.81364 18.4687C7.98546 18.6405 8.12077 18.8343 8.20827 19.0618C8.29462 19.2863 8.321 19.509 8.321 19.7202C8.321 20.7123 7.55431 21.479 6.56221 21.479C6.35103 21.479 6.1283 21.4526 5.9038 21.3662C5.6763 21.2787 5.48259 21.1434 5.31077 20.9716L2.83353 18.4944C2.66172 18.3225 2.5264 18.1288 2.4389 17.9013C2.35255 17.6768 2.32617 17.4541 2.32617 17.2429ZM4.08497 16.8341C3.83845 16.8341 3.67617 16.9964 3.67617 17.2429C3.67617 17.3414 3.6885 17.3896 3.69892 17.4167C3.70819 17.4408 3.7277 17.4793 3.78812 17.5398L6.26537 20.017C6.32579 20.0774 6.36432 20.0969 6.38842 20.1062C6.41551 20.1166 6.46373 20.129 6.56221 20.129C6.80873 20.129 6.971 19.9667 6.971 19.7202C6.971 19.6217 6.95868 19.5735 6.94826 19.5464C6.93899 19.5223 6.91948 19.4838 6.85905 19.4233L4.38181 16.9461C4.32138 16.8857 4.28285 16.8661 4.25875 16.8569C4.23166 16.8465 4.18344 16.8341 4.08497 16.8341Z" fill="white"/>
<path fill-rule="evenodd" clip-rule="evenodd" d="M11.6158 4.6254C11.6158 3.32364 12.6148 2.32471 13.9165 2.32471C14.548 2.32471 15.1105 2.54238 15.555 2.98689L15.7341 3.16598C16.0376 2.6565 16.5927 2.32471 17.2453 2.32471C17.4565 2.32471 17.6792 2.35109 17.9037 2.43744C18.1312 2.52493 18.3249 2.66025 18.4967 2.83207L20.974 5.30931C21.1458 5.48112 21.2811 5.67484 21.3686 5.90233C21.455 6.12683 21.4813 6.34956 21.4813 6.56074C21.4813 7.21339 21.1496 7.76849 20.6401 8.07194L20.8192 8.25103C21.2637 8.69555 21.4813 9.25808 21.4813 9.88953C21.4813 11.1913 20.4824 12.1902 19.1807 12.1902C18.5492 12.1902 17.9867 11.9726 17.5422 11.528L12.278 6.2639C11.8335 5.81938 11.6158 5.25685 11.6158 4.6254ZM16.9485 4.38034L19.4257 6.85758C19.4861 6.91801 19.5247 6.93752 19.5488 6.94679C19.5759 6.95721 19.6241 6.96954 19.7226 6.96954C19.9691 6.96954 20.1313 6.80726 20.1313 6.56074C20.1313 6.46227 20.119 6.41405 20.1086 6.38695C20.0993 6.36285 20.0798 6.32433 20.0194 6.2639L17.5422 3.78666C17.4817 3.72623 17.4432 3.70672 17.4191 3.69745C17.392 3.68703 17.3438 3.67471 17.2453 3.67471C16.9988 3.67471 16.8365 3.83698 16.8365 4.0835C16.8365 4.18197 16.8488 4.23019 16.8593 4.25729C16.8685 4.28134 16.8883 4.32014 16.9485 4.38034ZM15.9927 5.33381L14.6004 3.94149C14.4256 3.76669 14.214 3.67471 13.9165 3.67471C13.3603 3.67471 12.9658 4.06922 12.9658 4.6254C12.9658 4.92291 13.0578 5.13451 13.2326 5.30931L18.4967 10.5734C18.6715 10.7482 18.8831 10.8402 19.1807 10.8402C19.7368 10.8402 20.1313 10.4457 20.1313 9.88953C20.1313 9.59202 20.0394 9.38042 19.8646 9.20563L15.9939 5.33494L15.9927 5.33381ZM2.32617 13.9151C2.32617 12.6133 3.3251 11.6144 4.62686 11.6144C5.25831 11.6144 5.82085 11.832 6.26537 12.2765L11.5295 17.5407C11.974 17.9852 12.1917 18.5477 12.1917 19.1792C12.1917 20.4809 11.1928 21.4799 9.891 21.4799C9.25955 21.4799 8.69701 21.2622 8.2525 20.8177L2.98836 15.5536C2.54384 15.109 2.32617 14.5465 2.32617 13.9151ZM4.62686 12.9644C4.07069 12.9644 3.67617 13.3589 3.67617 13.9151C3.67617 14.2126 3.76816 14.4242 3.94295 14.599L9.20709 19.8631C9.38188 20.0379 9.59349 20.1299 9.891 20.1299C10.4472 20.1299 10.8417 19.7354 10.8417 19.1792C10.8417 18.8817 10.7497 18.6701 10.5749 18.4953L5.31077 13.2311C5.13598 13.0563 4.92438 12.9644 4.62686 12.9644Z" fill="white"/>
<path fill-rule="evenodd" clip-rule="evenodd" d="M14.0084 8.24995C14.272 8.51355 14.272 8.94094 14.0084 9.20454L9.20698 14.0796C8.94338 14.3432 8.51599 14.3432 8.25239 14.0796C7.98879 13.816 7.98879 13.3886 8.25239 13.125L13.0538 8.24995C13.3174 7.98635 13.7448 7.98635 14.0084 8.24995ZM15.605 9.75C15.8686 10.0136 15.8686 10.441 15.605 10.7046L10.707 15.6025C10.4434 15.8661 10.016 15.8661 9.75244 15.6025C9.48884 15.3389 9.48884 14.9115 9.75244 14.6479L14.6504 9.75C14.914 9.4864 15.3414 9.4864 15.605 9.75Z" fill="white"/>
</svg>
