<svg width="24" height="24" viewBox="0 0 24 24" fill="none" xmlns="http://www.w3.org/2000/svg">
<g clip-path="url(#clip0_24_15326)">
<path d="M3.47178 13.5544L3.85602 13.4432L3.47178 13.5544ZM3.47178 6.90653L3.08755 6.79534H3.08755L3.47178 6.90653ZM20.5282 6.90654L20.9125 6.79535V6.79535L20.5282 6.90654ZM20.5282 13.5544L20.144 13.4432V13.4432L20.5282 13.5544ZM16.8148 17.0075L16.7401 16.6146L16.8148 17.0075ZM7.18522 17.0075L7.25994 16.6146L7.18522 17.0075ZM7.18522 3.45344L7.1105 3.06048L7.18522 3.45344ZM16.8148 3.45344L16.8895 3.06048L16.8148 3.45344ZM3.52005 13.7212L3.13582 13.8324L3.52005 13.7212ZM20.48 13.7212L20.8642 13.8324V13.8324L20.48 13.7212ZM20.48 6.73973L20.0957 6.85092V6.85093L20.48 6.73973ZM3.52005 6.73973L3.90429 6.85092L3.52005 6.73973ZM12.4 17.923C12.4 17.7021 12.2209 17.523 12 17.523C11.7791 17.523 11.6 17.7021 11.6 17.923H12.4ZM11.6 21C11.6 21.2209 11.7791 21.4 12 21.4C12.2209 21.4 12.4 21.2209 12.4 21H11.6ZM9.36386 20.6C9.14294 20.6 8.96386 20.7791 8.96386 21C8.96386 21.2209 9.14294 21.4 9.36386 21.4V20.6ZM14.6361 21.4C14.8571 21.4 15.0361 21.2209 15.0361 21C15.0361 20.7791 14.8571 20.6 14.6361 20.6V21.4ZM20.0957 6.85093L20.144 7.01773L20.9125 6.79535L20.8642 6.62854L20.0957 6.85093ZM20.144 13.4432L20.0957 13.6101L20.8642 13.8324L20.9125 13.6656L20.144 13.4432ZM3.90429 13.6101L3.85602 13.4432L3.08755 13.6656L3.13582 13.8324L3.90429 13.6101ZM3.85602 7.01773L3.90429 6.85092L3.13582 6.62854L3.08755 6.79534L3.85602 7.01773ZM3.85602 13.4432C3.24799 11.3422 3.24799 9.11882 3.85602 7.01773L3.08755 6.79534C2.43748 9.04171 2.43748 11.4193 3.08755 13.6656L3.85602 13.4432ZM20.144 7.01773C20.752 9.11882 20.752 11.3422 20.144 13.4432L20.9125 13.6656C21.5625 11.4193 21.5625 9.04172 20.9125 6.79535L20.144 7.01773ZM16.7401 16.6146C13.6097 17.2098 10.3903 17.2098 7.25994 16.6146L7.11051 17.4005C10.3396 18.0145 13.6604 18.0145 16.8895 17.4005L16.7401 16.6146ZM7.25994 3.8464C10.3903 3.2512 13.6097 3.2512 16.7401 3.8464L16.8895 3.06048C13.6604 2.44651 10.3396 2.44651 7.1105 3.06048L7.25994 3.8464ZM7.25994 16.6146C5.64188 16.3069 4.34739 15.1412 3.90429 13.6101L3.13582 13.8324C3.66528 15.6621 5.20579 17.0383 7.11051 17.4005L7.25994 16.6146ZM16.8895 17.4005C18.7942 17.0383 20.3347 15.6621 20.8642 13.8324L20.0957 13.61C19.6526 15.1412 18.3581 16.3069 16.7401 16.6146L16.8895 17.4005ZM16.7401 3.8464C18.3581 4.15405 19.6526 5.31973 20.0957 6.85092L20.8642 6.62854C20.3347 4.7989 18.7942 3.42264 16.8895 3.06048L16.7401 3.8464ZM7.1105 3.06048C5.20579 3.42264 3.66528 4.79889 3.13582 6.62854L3.90429 6.85092C4.34739 5.31973 5.64188 4.15405 7.25994 3.8464L7.1105 3.06048ZM11.6 17.923V21H12.4V17.923H11.6ZM9.36386 21.4H14.6361V20.6H9.36386V21.4Z" fill="white"/>
</g>
<defs>
<clipPath id="clip0_24_15326">
<rect width="24" height="24" fill="white"/>
</clipPath>
</defs>
</svg>
