<svg width="24" height="24" viewBox="0 0 24 24" fill="none" xmlns="http://www.w3.org/2000/svg">
<path d="M19.0323 5.57391H16.066C15.8283 5.57436 15.599 5.4864 15.4225 5.32713C15.246 5.16786 15.1351 4.94866 15.1113 4.71216C15.0558 4.15759 14.7959 3.64352 14.3822 3.27003C13.9685 2.89655 13.4306 2.69038 12.8733 2.69166H11.1258C10.5685 2.69038 10.0306 2.89655 9.61689 3.27003C9.20321 3.64352 8.94331 4.15759 8.8878 4.71216C8.86397 4.94866 8.75305 5.16786 8.57659 5.32713C8.40013 5.4864 8.17075 5.57436 7.93305 5.57391H4.9668C4.17115 5.57391 3.40809 5.88998 2.84548 6.45259C2.28287 7.01519 1.9668 7.77826 1.9668 8.57391V18.3082C1.9668 19.1038 2.28287 19.8669 2.84548 20.4295C3.40809 20.9921 4.17115 21.3082 4.9668 21.3082H19.0323C19.8279 21.3082 20.591 20.9921 21.1536 20.4295C21.7162 19.8669 22.0323 19.1038 22.0323 18.3082V8.57391C22.0323 7.77826 21.7162 7.01519 21.1536 6.45259C20.591 5.88998 19.8279 5.57391 19.0323 5.57391ZM10.3803 4.86516C10.3989 4.68029 10.4854 4.5089 10.6231 4.38419C10.7609 4.25948 10.94 4.19034 11.1258 4.19016H12.8733C13.0591 4.19034 13.2382 4.25948 13.3759 4.38419C13.5137 4.5089 13.6002 4.68029 13.6188 4.86516C13.6469 5.1097 13.7116 5.34863 13.8108 5.57391H10.1883C10.2875 5.34863 10.3522 5.1097 10.3803 4.86516ZM4.9668 7.07391H19.0323C19.4301 7.07391 19.8117 7.23194 20.093 7.51325C20.3743 7.79455 20.5323 8.17608 20.5323 8.57391V12.2834C17.8968 13.6461 14.9663 14.3388 11.9995 14.3002C9.03272 14.3391 6.10202 13.6462 3.4668 12.2827V8.57391C3.4668 8.17608 3.62483 7.79455 3.90614 7.51325C4.18744 7.23194 4.56897 7.07391 4.9668 7.07391ZM19.0323 19.8082H4.9668C4.56897 19.8082 4.18744 19.6501 3.90614 19.3688C3.62483 19.0875 3.4668 18.706 3.4668 18.3082V13.9717C5.91089 15.0983 8.55915 15.7143 11.2495 15.7822V16.2052C11.2495 16.4041 11.3286 16.5948 11.4692 16.7355C11.6099 16.8761 11.8006 16.9552 11.9995 16.9552C12.1985 16.9552 12.3892 16.8761 12.5299 16.7355C12.6705 16.5948 12.7495 16.4041 12.7495 16.2052V15.7822C15.4399 15.7143 18.0882 15.0983 20.5323 13.9717V18.3082C20.5323 18.5051 20.4935 18.7002 20.4181 18.8822C20.3427 19.0642 20.2322 19.2295 20.093 19.3688C19.9537 19.5081 19.7883 19.6186 19.6063 19.694C19.4243 19.7694 19.2293 19.8082 19.0323 19.8082Z" fill="white"/>
</svg>
