<svg width="24" height="24" viewBox="0 0 24 24" fill="none" xmlns="http://www.w3.org/2000/svg">
<path d="M5.45862 20.6267H18.844C19.1523 20.6256 19.4571 20.5602 19.7388 20.4349C20.0205 20.3095 20.273 20.1268 20.4803 19.8985C20.7082 19.648 20.8842 19.3547 20.998 19.0357C21.1118 18.7167 21.1612 18.3782 21.1433 18.04C21.1255 17.7018 21.0407 17.3704 20.8938 17.0652C20.747 16.7599 20.5411 16.4869 20.288 16.2617C20.0475 16.0502 19.7635 15.894 19.456 15.8043C19.1485 15.7145 18.8251 15.6933 18.5085 15.7422L17.314 15.9263C17.4136 15.6337 17.466 15.3272 17.4694 15.0181V11.6268C17.4694 10.6503 17.0815 9.71384 16.391 9.02337C15.7006 8.3329 14.7641 7.945 13.7876 7.945V7.83864C14.2879 7.49027 14.664 6.99132 14.8611 6.41442C15.0582 5.83751 15.066 5.21275 14.8835 4.63109C14.7009 4.04942 14.3375 3.54119 13.8461 3.18038C13.3547 2.81956 12.7609 2.625 12.1513 2.625C11.5416 2.625 10.9479 2.81956 10.4565 3.18038C9.96508 3.54119 9.60165 4.04942 9.41908 4.63109C9.23652 5.21275 9.24436 5.83751 9.44146 6.41442C9.63856 6.99132 10.0146 7.49027 10.5149 7.83864V7.945C9.53847 7.945 8.60199 8.3329 7.91152 9.02337C7.22105 9.71384 6.83315 10.6503 6.83315 11.6268V15.0181C6.83521 15.327 6.8863 15.6335 6.98451 15.9263L5.78179 15.7422C5.67347 15.7259 5.56407 15.7177 5.45452 15.7177C4.80354 15.7177 4.17923 15.9763 3.71891 16.4366C3.2586 16.8969 3 17.5212 3 18.1722C3 18.8232 3.2586 19.4475 3.71891 19.9078C4.17923 20.3681 4.80354 20.6267 5.45452 20.6267H5.45862ZM10.1058 5.49048C10.1058 5.08593 10.2258 4.69046 10.4506 4.35409C10.6753 4.01772 10.9948 3.75555 11.3685 3.60074C11.7423 3.44593 12.1536 3.40542 12.5503 3.48434C12.9471 3.56327 13.3116 3.75808 13.5976 4.04414C13.8837 4.3302 14.0785 4.69466 14.1574 5.09143C14.2363 5.48821 14.1958 5.89948 14.041 6.27323C13.8862 6.64699 13.624 6.96644 13.2877 7.1912C12.9513 7.41595 12.5558 7.53591 12.1513 7.53592C11.6088 7.53592 11.0885 7.32041 10.7049 6.93682C10.3213 6.55323 10.1058 6.03296 10.1058 5.49048ZM7.65132 11.6268C7.65132 10.8673 7.95302 10.1389 8.49006 9.60191C9.02709 9.06488 9.75546 8.76318 10.5149 8.76318C10.6766 8.76318 11.625 8.625 13.7345 8.76318H13.7876C14.5471 8.76318 15.2755 9.06488 15.8125 9.60191C16.3495 10.1389 16.6512 10.8673 16.6512 11.6268V15.0181C16.6512 15.3977 16.5456 15.7697 16.3462 16.0927C16.1468 16.4156 15.8615 16.6767 15.5222 16.8467L12.1513 18.5322L8.7804 16.8467C8.44108 16.6767 8.15576 16.4156 7.95635 16.0927C7.75695 15.7697 7.65134 15.3977 7.65132 15.0181V11.6268ZM5.45452 16.5358C5.52537 16.5315 5.59641 16.5315 5.66725 16.5358L7.47951 16.814C7.73428 17.1281 8.05382 17.3834 8.41632 17.5626L11.9672 19.3381C12.0243 19.3669 12.0873 19.3818 12.1513 19.3818C12.2152 19.3818 12.2783 19.3669 12.3354 19.3381L15.8863 17.5626C16.2487 17.3834 16.5683 17.1281 16.8231 16.814L18.6353 16.5358C18.8357 16.505 19.0404 16.5187 19.2348 16.5759C19.4293 16.6332 19.6087 16.7327 19.7603 16.8672C19.9453 17.0297 20.0924 17.2307 20.1914 17.4562C20.2903 17.6816 20.3387 17.926 20.333 18.1722C20.3364 18.6043 20.1773 19.0219 19.8871 19.3422C19.7547 19.4876 19.5937 19.604 19.4142 19.6843C19.2347 19.7645 19.0406 19.8068 18.844 19.8085H5.45862C5.02463 19.8085 4.60842 19.6361 4.30154 19.3293C3.99467 19.0224 3.82227 18.6062 3.82227 18.1722C3.82227 17.7382 3.99467 17.322 4.30154 17.0151C4.60842 16.7082 5.02463 16.5358 5.45862 16.5358H5.45452Z" fill="white"/>
</svg>
